<?xml version="1.0" encoding="utf-8"?>
<!-- Svg Vector Icons : http://www.onlinewebfonts.com/icon -->
<!DOCTYPE svg PUBLIC "-//W3C//DTD SVG 1.1//EN" "http://www.w3.org/Graphics/SVG/1.1/DTD/svg11.dtd">
<svg version="1.1" xmlns="http://www.w3.org/2000/svg" xmlns:xlink="http://www.w3.org/1999/xlink" x="0px" y="0px" viewBox="0 0 256 256" enable-background="new 0 0 256 256" xml:space="preserve">
<metadata> Svg Vector Icons : http://www.onlinewebfonts.com/icon </metadata>
<g><g><g><path fill="#000000" d="M124.1,10.8c-1.1,0.5-2.3,1.6-2.9,2.5c-0.8,1.1-2.6,12.7-7.3,45.4c-6.7,47.1-6.4,45.7-10.3,48c-1.2,0.7-14.5,2.8-44.9,7.2c-27,3.9-43.9,6.5-45,7.1c-3.3,1.7-4.7,6.7-3,10.7c1.6,3.9,1,3.8,47.7,10.4c23.6,3.3,43.7,6.3,44.5,6.6c1.9,0.8,4.5,3.8,4.9,5.8c0.2,0.9,3,20.5,6.3,43.6c4,28.2,6.2,42.6,6.9,43.9c2.5,5,10.8,5.5,13.9,0.8c0.8-1.2,2.6-12.5,7.3-45.4c6.6-46.7,6.4-45.3,10-48c1.1-0.8,11.1-2.4,45-7.2c30.5-4.3,44-6.4,45.2-7.2c4.9-2.9,4.9-11.5,0.1-14c-1.1-0.6-18.3-3.3-45-7.1c-30.3-4.3-43.7-6.4-44.9-7.2c-3.9-2.3-3.6-0.8-10.3-48c-4.7-33.1-6.4-44.3-7.3-45.4C132.8,10.2,127.8,9,124.1,10.8z"/><path fill="#000000" d="M74.7,74.4C74,75,73.5,76.2,73.5,77c0,1.3,10.1,20.8,12.4,23.9c0.8,1,1.1,1,7.2,0.1c3.6-0.5,6.6-1.2,6.8-1.5c0.7-1.1,1.9-12.8,1.3-13.3c-1.2-1.2-23.5-13-24.5-13C76.3,73.2,75.3,73.7,74.7,74.4z"/><path fill="#000000" d="M166.1,79.7l-12,6.6l0.8,6.5c0.5,3.6,1,6.7,1.2,6.9c0.6,0.6,13.1,2.3,13.6,1.8c0.2-0.3,3.2-5.6,6.6-11.8c5.9-10.7,6.8-13,5.7-14.5c-0.5-0.7-2.7-2-3.5-2C178.4,73.2,172.7,76.1,166.1,79.7z"/><path fill="#000000" d="M85.7,155.4c-3.8,6-12.1,22.3-12.1,23.5c0,1.6,1.2,3,2.9,3.6c0.9,0.3,4.6-1.5,13.2-6.2c11-6,12-6.7,12-8.1c-0.1-2.1-1.5-11.8-1.8-12.1c-0.3-0.2-11.5-2.1-12.8-2.1C86.7,154.1,86.1,154.7,85.7,155.4z"/><path fill="#000000" d="M162.2,155c-2.6,0.4-5.2,0.9-5.6,1c-1.1,0.4-2.9,13.2-2,13.9c1.2,1,23.6,13,24.2,13c1.4,0,3.7-2.5,3.6-4c0-0.9-2.9-6.7-6.3-13C169,152.9,170.1,153.8,162.2,155z"/></g></g></g>
</svg>